<svg xmlns="http://www.w3.org/2000/svg" width="375" viewBox="0 0 375 375" height="375" version="1.0"><defs><clipPath id="a"><path d="M 52.070312 59.90625 L 343.820312 59.90625 L 343.820312 314.90625 L 52.070312 314.90625 Z M 52.070312 59.90625"/></clipPath></defs><g clip-path="url(#a)"><path d="M 342.761719 183.074219 C 335.359375 185.210938 327.707031 187.441406 320.816406 191.261719 C 316.066406 193.90625 312.140625 197.0625 309.144531 200.726562 C 308.058594 202.03125 307.132812 203.371094 306.335938 204.769531 C 306.75 201.617188 307.070312 198.429688 307.261719 195.214844 C 307.292969 195.148438 307.359375 195.117188 307.390625 195.054688 C 310.101562 188.746094 313.863281 183.042969 318.550781 178.105469 C 318.777344 178.199219 319.0625 178.296875 319.316406 178.328125 C 319.414062 178.328125 319.507812 178.328125 319.574219 178.328125 C 320.847656 178.328125 321.933594 177.371094 322.09375 176.066406 C 322.253906 174.695312 321.230469 173.453125 319.859375 173.292969 C 318.488281 173.167969 317.214844 174.15625 317.085938 175.523438 C 317.023438 176.160156 317.214844 176.796875 317.5625 177.277344 C 313.449219 181.609375 310.070312 186.515625 307.453125 191.867188 C 307.515625 190.371094 307.515625 188.875 307.515625 187.40625 C 307.515625 181.960938 307.167969 176.542969 306.496094 171.191406 C 306.335938 169.183594 306.816406 167.050781 307.898438 164.660156 C 318.042969 160.199219 324.644531 153.699219 328.121094 144.875 C 328.214844 144.621094 328.121094 144.300781 327.898438 144.144531 C 327.675781 143.984375 327.355469 143.984375 327.132812 144.175781 L 317.371094 152.234375 C 314.4375 154.65625 311.410156 157.171875 309.046875 160.296875 C 308.1875 161.441406 307.453125 162.683594 306.878906 163.894531 C 306.464844 164.820312 306.113281 165.679688 305.859375 166.539062 C 305.414062 163.894531 304.902344 161.285156 304.296875 158.671875 C 307.199219 139.808594 304.902344 124.773438 304.902344 124.644531 C 304.871094 124.359375 304.613281 124.136719 304.359375 124.105469 C 304.074219 124.070312 303.816406 124.230469 303.691406 124.484375 C 300.660156 132.003906 300.054688 139.238281 300.371094 145.097656 C 299.511719 142.644531 298.554688 140.191406 297.535156 137.769531 C 291.09375 122.574219 281.90625 108.9375 270.167969 97.246094 C 258.433594 85.554688 244.8125 76.347656 229.601562 69.910156 C 213.8125 63.285156 197.101562 59.90625 179.878906 59.90625 C 162.65625 59.90625 145.910156 63.285156 130.1875 69.910156 C 114.972656 76.347656 101.324219 85.523438 89.617188 97.246094 C 77.914062 108.972656 68.695312 122.574219 62.253906 137.769531 C 55.621094 153.476562 52.238281 170.203125 52.238281 187.40625 C 52.238281 204.613281 55.621094 221.304688 62.253906 237.042969 C 68.695312 252.242188 77.882812 265.875 89.617188 277.570312 C 101.355469 289.261719 114.972656 298.46875 130.1875 304.902344 C 145.910156 311.5625 162.625 314.90625 179.878906 314.90625 C 197.132812 314.90625 213.8125 311.53125 229.570312 304.902344 C 244.78125 298.46875 258.433594 289.292969 270.136719 277.570312 C 281.84375 265.84375 291.058594 252.242188 297.503906 237.042969 C 298.777344 234.019531 299.957031 230.925781 300.980469 227.804688 C 301.011719 227.804688 301.042969 227.804688 301.042969 227.804688 C 301.296875 227.742188 301.488281 227.519531 301.519531 227.261719 C 301.585938 226.722656 301.617188 226.179688 301.679688 225.640625 C 303.402344 220.128906 304.773438 214.488281 305.730469 208.785156 C 305.792969 208.722656 305.859375 208.65625 305.890625 208.5625 C 306.878906 206.109375 308.316406 203.785156 310.132812 201.585938 C 310.292969 201.488281 310.898438 201.332031 311.183594 201.265625 C 311.40625 201.203125 311.597656 201.171875 311.726562 201.105469 C 312.589844 200.820312 313.417969 200.566406 314.152344 200.34375 C 314.691406 200.183594 315.234375 200.023438 315.746094 199.863281 C 316.765625 199.546875 317.820312 199.226562 318.839844 198.910156 C 321.742188 197.984375 324.582031 196.804688 327.257812 195.5 C 332.648438 192.824219 337.65625 189.445312 342.089844 185.433594 C 342.535156 185.019531 342.984375 184.636719 343.398438 184.222656 C 343.621094 184.03125 343.652344 183.710938 343.523438 183.457031 C 343.367188 183.105469 343.046875 182.980469 342.761719 183.074219 Z M 179.878906 313.632812 C 110.191406 313.632812 53.515625 256.988281 53.515625 187.40625 C 53.515625 117.828125 110.191406 61.183594 179.878906 61.183594 C 237.222656 61.183594 285.765625 99.539062 301.136719 151.949219 C 301.746094 155.101562 302.476562 157.332031 302.828125 158.320312 C 304.996094 167.496094 306.175781 177.023438 306.210938 186.835938 C 305.792969 184.921875 305.316406 183.011719 304.742188 181.132812 C 301.839844 171.414062 296.960938 162.113281 290.644531 154.273438 C 290.453125 154.050781 290.136719 153.957031 289.878906 154.082031 C 289.625 154.210938 289.464844 154.496094 289.527344 154.785156 C 291.632812 164.789062 296.480469 174.058594 303.5625 181.609375 C 304.710938 185.464844 305.539062 189.414062 306.082031 193.367188 C 305.761719 200.3125 304.871094 207.097656 303.464844 213.691406 C 302.414062 202.890625 300.820312 198.6875 298.652344 193.046875 L 298.523438 192.695312 C 299.128906 192.28125 299.542969 191.644531 299.640625 190.847656 C 299.703125 190.179688 299.511719 189.511719 299.097656 189 C 298.683594 188.492188 298.078125 188.140625 297.40625 188.078125 C 296.738281 188.011719 296.066406 188.203125 295.558594 188.617188 C 295.046875 189.03125 294.695312 189.636719 294.632812 190.308594 C 294.472656 191.675781 295.492188 192.953125 296.863281 193.078125 C 296.960938 193.078125 297.054688 193.078125 297.121094 193.078125 C 297.183594 193.078125 297.246094 193.078125 297.3125 193.078125 L 297.46875 193.460938 C 299.796875 199.578125 301.488281 204.007812 302.511719 217.324219 C 302.511719 217.417969 302.542969 217.484375 302.574219 217.578125 C 302.285156 218.695312 302 219.808594 301.710938 220.890625 C 301.488281 217.195312 300.691406 213.5625 299.320312 210.15625 C 296.324219 202.699219 290.550781 196.265625 283.4375 192.472656 C 283.214844 192.347656 282.925781 192.378906 282.703125 192.570312 C 282.511719 192.726562 282.417969 193.015625 282.511719 193.269531 C 287.488281 207.03125 292.878906 215.921875 299.894531 226.785156 C 283.308594 277.1875 235.757812 313.632812 179.878906 313.632812 Z M 179.878906 313.632812"/></g><g><g><g><path d="M 3.808594 -76.207031 C 6.3125 -74.359375 7.949219 -71.089844 9.035156 -69.023438 C 16.4375 -55.085938 20.140625 -46.703125 27.21875 -32.550781 L 44.308594 1.632812 L 60.859375 -38.539062 C 61.835938 -36.578125 62.707031 -34.621094 63.796875 -32.550781 L 80.890625 1.632812 C 93.734375 -10.667969 118.667969 -30.484375 118.667969 -50.40625 C 118.667969 -68.152344 109.085938 -77.839844 93.734375 -77.839844 C 75.226562 -77.839844 68.480469 -57.917969 62.707031 -46.378906 L 62.601562 -46.160156 C 58.570312 -54 54.980469 -61.183594 51.386719 -69.347656 C 50.296875 -71.851562 49.972656 -74.359375 51.496094 -76.207031 L 40.390625 -76.207031 C 42.894531 -74.359375 44.527344 -71.089844 45.617188 -69.023438 C 51.605469 -57.699219 55.195312 -50.078125 60.09375 -40.0625 L 45.832031 -6.097656 C 35.382812 -27.324219 24.167969 -47.792969 14.804688 -69.347656 C 13.71875 -71.851562 13.390625 -74.359375 14.914062 -76.207031 Z M 92.972656 -73.8125 C 105.820312 -73.8125 115.183594 -62.707031 115.183594 -48.445312 C 115.183594 -30.375 97.328125 -15.460938 84.046875 -3.046875 L 67.0625 -37.34375 C 65.867188 -39.738281 64.667969 -42.242188 63.363281 -44.636719 C 67.714844 -54.433594 74.03125 -73.8125 92.972656 -73.8125 Z M 92.972656 -73.8125" transform="translate(117.628 223.566)"/></g></g></g><g><g><g><path d="M 3.808594 0 L 12.628906 0 C 10.34375 -2.285156 10.558594 -6.3125 10.558594 -10.453125 L 10.558594 -65.757812 C 10.558594 -69.894531 10.34375 -73.921875 12.628906 -76.207031 L 3.808594 -76.207031 C 6.097656 -73.921875 5.878906 -69.894531 5.878906 -65.757812 L 5.878906 -10.453125 C 5.878906 -6.3125 6.097656 -2.285156 3.808594 0 Z M 3.808594 0" transform="translate(134.14 170.638)"/></g></g></g><g><g><g><path d="M 3.808594 0 L 12.628906 0 C 10.34375 -2.285156 10.558594 -6.3125 10.558594 -10.453125 L 10.558594 -65.757812 C 10.558594 -69.894531 10.34375 -73.921875 12.628906 -76.207031 L 3.808594 -76.207031 C 6.097656 -73.921875 5.878906 -69.894531 5.878906 -65.757812 L 5.878906 -10.453125 C 5.878906 -6.3125 6.097656 -2.285156 3.808594 0 Z M 3.808594 0" transform="translate(209.829 270.569)"/></g></g></g></svg>